# xmcd CD database file
#
# Track frame offsets:
#	150
#	33460
#	59838
#	82151
#	104558
#	128691
#	148095
#	166798
#	189615
#	206282
#	229633
#
# Disc length: 3406 seconds
#
# Revision: 0
# Processed by: cddbd v1.5.2PL0 Copyright (c) Steve Scherf et al.
# Submitted via: CDex 1.51
#
DISCID=9c0d4c0b
DTITLE=Dee Dee Bridgewater - Midnight Sun
DYEAR=2011
DGENRE=Jazz
TTITLE0=Midnight Sun
TTITLE1=Angel Eyes
TTITLE2=My Ship
TTITLE3=Que Reste-t-il ?
TTITLE4=Lonely Woman
TTITLE5=Speak Low
TTITLE6=I'm A Fool To Want You - I Fall In Love Too Easily
TTITLE7=L'Hymne A l'Amour
TTITLE8=The Island
TTITLE9=Good Morning Heartache
TTITLE10=Here I'll Stay
EXTD=YEAR: 2011
EXTT0=
EXTT1=
EXTT2=
EXTT3=
EXTT4=
EXTT5=
EXTT6=
EXTT7=
EXTT8=
EXTT9=
EXTT10=
PLAYORDER=
